<svg width="980" height="620" viewBox="0 0 980 620" fill="none" xmlns="http://www.w3.org/2000/svg">
  <rect width="980" height="620" rx="8" fill="#101318"/>
  <rect x="32" y="32" width="916" height="556" rx="8" fill="#15191F" stroke="#2B3038" stroke-width="2"/>
  <text x="64" y="82" fill="#F3F0E8" font-family="Inter, Arial, sans-serif" font-size="28" font-weight="700">Recipe Data Platform</text>
  <text x="64" y="114" fill="#B7B2A8" font-family="Inter, Arial, sans-serif" font-size="17">Personal data engineering project: ingestion, warehouse modeling, analytics, API, and dashboard.</text>

  <g font-family="Inter, Arial, sans-serif" font-size="15" font-weight="700">
    <rect x="68" y="186" width="126" height="74" rx="8" fill="#1D2027" stroke="#3A414C" stroke-width="2"/>
    <text x="101" y="218" fill="#F3F0E8">Sources</text>
    <text x="88" y="242" fill="#B7B2A8" font-size="12" font-weight="600">CSV / TikTok</text>

    <rect x="248" y="186" width="136" height="74" rx="8" fill="#1D2027" stroke="#6DA9D7" stroke-width="2"/>
    <text x="279" y="218" fill="#F3F0E8">Ingestion</text>
    <text x="270" y="242" fill="#B7B2A8" font-size="12" font-weight="600">Kafka / Batch</text>

    <rect x="438" y="150" width="150" height="74" rx="8" fill="#1D2027" stroke="#8FBF8F" stroke-width="2"/>
    <text x="477" y="182" fill="#F3F0E8">Bronze</text>
    <text x="470" y="206" fill="#B7B2A8" font-size="12" font-weight="600">Raw records</text>

    <rect x="438" y="272" width="150" height="74" rx="8" fill="#1D2027" stroke="#8FBF8F" stroke-width="2"/>
    <text x="485" y="304" fill="#F3F0E8">Silver</text>
    <text x="458" y="328" fill="#B7B2A8" font-size="12" font-weight="600">LLM enriched</text>

    <rect x="642" y="186" width="142" height="74" rx="8" fill="#1D2027" stroke="#8FBF8F" stroke-width="2"/>
    <text x="687" y="218" fill="#F3F0E8">Gold</text>
    <text x="663" y="242" fill="#B7B2A8" font-size="12" font-weight="600">dbt / Spark</text>

    <rect x="834" y="150" width="82" height="74" rx="8" fill="#1D2027" stroke="#D7A85D" stroke-width="2"/>
    <text x="856" y="182" fill="#F3F0E8">API</text>
    <text x="850" y="206" fill="#B7B2A8" font-size="12" font-weight="600">FastAPI</text>

    <rect x="834" y="272" width="82" height="74" rx="8" fill="#1D2027" stroke="#D7A85D" stroke-width="2"/>
    <text x="845" y="304" fill="#F3F0E8">App</text>
    <text x="842" y="328" fill="#B7B2A8" font-size="12" font-weight="600">Streamlit</text>
  </g>

  <g stroke="#6DA9D7" stroke-width="4" stroke-linecap="round">
    <path d="M194 223H248"/>
    <path d="M384 223H438"/>
    <path d="M513 224V272"/>
    <path d="M588 309H642"/>
    <path d="M784 223H834"/>
    <path d="M713 260V309H834"/>
  </g>

  <g fill="#6DA9D7">
    <path d="M246 223L236 217V229L246 223Z"/>
    <path d="M436 223L426 217V229L436 223Z"/>
    <path d="M513 270L507 260H519L513 270Z"/>
    <path d="M640 309L630 303V315L640 309Z"/>
    <path d="M832 223L822 217V229L832 223Z"/>
    <path d="M832 309L822 303V315L832 309Z"/>
  </g>

  <rect x="68" y="432" width="848" height="82" rx="8" fill="#1D2027" stroke="#2B3038"/>
  <text x="96" y="466" fill="#8FBF8F" font-family="Inter, Arial, sans-serif" font-size="14" font-weight="800">WHAT IT DEMONSTRATES</text>
  <text x="96" y="494" fill="#F3F0E8" font-family="Inter, Arial, sans-serif" font-size="17" font-weight="650">A reproducible data product with separated layers, validated enrichment, curated serving models, and user-facing delivery.</text>
</svg>
